<svg width="197" height="116" viewBox="0 0 197 116" fill="none" xmlns="http://www.w3.org/2000/svg">
<path d="M0.217501 114V1.99999H26.1375V92.88H82.2975V114H0.217501ZM148.985 115.92C140.132 115.92 131.972 114.533 124.505 111.76C117.145 108.88 110.692 104.827 105.145 99.6C99.705 94.3733 95.4383 88.24 92.345 81.2C89.3583 74.16 87.865 66.4267 87.865 58C87.865 49.5733 89.3583 41.84 92.345 34.8C95.4383 27.76 99.7583 21.6267 105.305 16.4C110.852 11.1733 117.358 7.17333 124.825 4.39999C132.292 1.52 140.505 0.079998 149.465 0.079998C159.385 0.079998 168.292 1.73333 176.185 5.03999C184.185 8.34666 190.905 13.1467 196.345 19.44L179.705 34.8C175.652 30.5333 171.225 27.3867 166.425 25.36C161.625 23.2267 156.398 22.16 150.745 22.16C145.305 22.16 140.345 23.0133 135.865 24.72C131.385 26.4267 127.492 28.88 124.185 32.08C120.985 35.28 118.478 39.0667 116.665 43.44C114.958 47.8133 114.105 52.6667 114.105 58C114.105 63.2267 114.958 68.0267 116.665 72.4C118.478 76.7733 120.985 80.6133 124.185 83.92C127.492 87.12 131.332 89.5733 135.705 91.28C140.185 92.9867 145.092 93.84 150.425 93.84C155.545 93.84 160.505 93.04 165.305 91.44C170.212 89.7333 174.958 86.9067 179.545 82.96L194.265 101.68C188.185 106.267 181.092 109.787 172.985 112.24C164.985 114.693 156.985 115.92 148.985 115.92ZM170.585 98.32V56.24H194.265V101.68L170.585 98.32Z" fill="#333333"/>
</svg>
